<?xml version="1.0" encoding="utf-8"?>
<!-- Generator: Adobe Illustrator 19.0.0, SVG Export Plug-In . SVG Version: 6.00 Build 0)  -->
<svg version="1.1" id="Layer_1" xmlns="http://www.w3.org/2000/svg" xmlns:xlink="http://www.w3.org/1999/xlink" x="0px" y="0px"
	 viewBox="0 0 14.3 17.3" style="enable-background:new 0 0 14.3 17.3;" xml:space="preserve">
<style type="text/css">
	.st0{fill:none;stroke:#7B8994;stroke-linecap:round;stroke-linejoin:round;stroke-miterlimit:10;}
</style>
<path class="st0" d="M12.3,4.6l-1.4,11.6c0,0.4-0.4,0.7-0.8,0.7h-6c-0.4,0-0.7-0.3-0.8-0.7L2,4.6H12.3z M9.4,3.2V1.2
	c0-0.4-0.3-0.7-0.7-0.7H5.6c-0.4,0-0.7,0.3-0.7,0.7v2.1H9.4z M7.2,6.3v8V6.3z M4.7,6.3l0.4,8L4.7,6.3z M9.7,6.4l-0.4,8L9.7,6.4z
	 M13.8,3.9L13.8,3.9c0-0.4-0.3-0.7-0.7-0.7h-12c-0.4,0-0.7,0.3-0.7,0.7c0,0.4,0.3,0.7,0.7,0.7h12C13.5,4.6,13.8,4.3,13.8,3.9z"/>
</svg>
