<?xml version="1.0" encoding="utf-8"?>
<!-- Generator: Adobe Illustrator 19.0.0, SVG Export Plug-In . SVG Version: 6.00 Build 0)  -->
<svg version="1.1" id="Layer_1" xmlns="http://www.w3.org/2000/svg" xmlns:xlink="http://www.w3.org/1999/xlink" x="0px" y="0px"
	 viewBox="0 0 13.8 17" style="enable-background:new 0 0 13.8 17;" xml:space="preserve">
<style type="text/css">
	.st0{fill:none;stroke:#7B8994;stroke-linecap:round;stroke-linejoin:round;stroke-miterlimit:10;}
</style>
<path class="st0" d="M6.8,8.4L0.5,2.1l1.6-1.6l6.3,6.3l0.7,2.3L6.8,8.4z M3.1,1.5L1.5,3.1L3.1,1.5z M8.4,6.8L6.8,8.4L8.4,6.8z
	 M5,0.9h5.7H5z M1.9,6.1v9.1c0,0.7,0.6,1.3,1.3,1.3h8.7c0.7,0,1.3-0.6,1.3-1.3V3.4 M10.8,0.9l0,2.5l2.5,0L10.8,0.9z M4,11.7h7.3H4z
	 M4,14.1h7.3H4z"/>
</svg>
