<?xml version="1.0" encoding="utf-8"?>
<!-- Generator: Adobe Illustrator 19.0.0, SVG Export Plug-In . SVG Version: 6.00 Build 0)  -->
<svg version="1.1" id="Layer_1" xmlns="http://www.w3.org/2000/svg" xmlns:xlink="http://www.w3.org/1999/xlink" x="0px" y="0px"
	 viewBox="0 0 194.1 31.5" style="enable-background:new 0 0 194.1 31.5;" xml:space="preserve">
<style type="text/css">
	.st0{fill:none;stroke:#FFFFFF;stroke-width:1.5;stroke-miterlimit:10;}
	.st1{clip-path:url(#XMLID_75_);}
	.st2{clip-path:url(#XMLID_76_);fill:#FFFFFF;}
	.st3{fill:#FFFFFF;}
</style>
<path class="st0" d="M28.1,17.7c0,7.2-5.9,13.1-13.3,13.1S1.6,24.9,1.6,17.7c0-7.2,5.9-13.1,13.3-13.1S28.1,10.5,28.1,17.7z
	 M14.8,0.8c-1.1,0-2,0.9-2,1.9c0,1.1,0.9,1.9,2,1.9c1.1,0,2-0.9,2-1.9C16.8,1.6,15.9,0.8,14.8,0.8z M14.8,6.1v1V6.1z M13.8,18.7
	l-5.9,5.8L13.8,18.7z M4,7l1.5,1.5L4,7z M3,17.7h1H3z M26.6,17.7h-1H26.6z M14.8,29.3v-1V29.3z M14.8,16.2c-0.8,0-1.5,0.6-1.5,1.5
	c0,0.8,0.7,1.5,1.5,1.5c0.8,0,1.5-0.6,1.5-1.5C16.3,16.9,15.6,16.2,14.8,16.2z M4,4.1L1.1,7l1.5,1.5l2.9-2.9L4,4.1z M25.6,7
	l-1.5,1.5L25.6,7z M24.1,5.6l2.9,2.9L28.6,7l-2.9-2.9L24.1,5.6z M8.2,24.2c1.7,1.7,4,2.7,6.6,2.7c5.2,0,9.3-4.1,9.3-9.2
	c0-5.1-4.2-9.2-9.3-9.2 M10.3,22.1c1.2,1.1,2.8,1.8,4.5,1.8c3.5,0,6.4-2.8,6.4-6.3c0-3.5-2.9-6.3-6.4-6.3 M5,17.7h1H5z M7,17.7h1H7z
	 M8.9,17.7h1H8.9z M10.9,17.7h1H10.9z M14.8,4.6V2.7V4.6z"/>
<g id="XMLID_2_">
	<g id="XMLID_51_">
		<defs>
			<path id="XMLID_52_" d="M115.1,25.3c-1.2,0.3-2.6,0.4-4.2,0.4c-1.1,0-2-0.1-2.7-0.2c-1.6-0.4-2.6-1.1-3.2-2.1
				c-0.5-1-0.8-2.6-0.8-4.8h12.2c0.1-0.7,0.1-1.4,0.1-2.1c0-2.5-0.5-4.2-1.6-5.2c-1.1-1-2.7-1.5-4.8-1.5c-1.2,0-2.3,0.1-3.1,0.3
				c-0.8,0.2-1.6,0.6-2.3,1.2c-0.7,0.6-1.2,1.5-1.5,2.6c-0.3,1.2-0.5,2.6-0.5,4.4c0,2.6,0.3,4.6,1,5.8c0.7,1.2,2,2,4,2.5
				c0.8,0.2,1.8,0.3,3.1,0.3c1.2,0,2.6-0.1,4.2-0.4V25.3z M104.3,17.4c0.1-2.5,0.6-4.1,1.5-5c0.8-0.9,2.3-1.3,4.4-1.3
				c1.9,0,3.2,0.5,4.1,1.4c0.8,0.9,1.2,2.6,1,4.9H104.3z M98.4,16.2c0-2.5-0.5-4.1-1.4-5c-0.9-0.9-2.7-1.3-5.3-1.3
				c-2.1,0-3.9,0.3-5.5,1l-1.2,0.5c-0.9-1-2.7-1.5-5.4-1.5c-2.1,0-3.9,0.3-5.5,1l-0.4-0.7h-0.9v16.6h1.4V11.9
				c1.7-0.5,3.5-0.8,5.3-0.8c2.2,0,3.6,0.4,4.3,1.1c0.7,0.7,1,2.1,1,4.1v10.4h1.4V16.2c0-1.8-0.3-3.1-0.7-4l0.7-0.3
				c1.7-0.5,3.5-0.8,5.3-0.8c2.2,0,3.6,0.4,4.3,1.1c0.7,0.7,1,2.1,1,4.1v10.4h1.4V16.2z M55.4,16.4c0-1.9,0.4-3.3,1.2-4.1
				c0.8-0.8,2.3-1.2,4.4-1.2c1.6,0,3.4,0.2,5.2,0.6v13.1c-1.8,0.6-3.5,0.8-5.2,0.8c-2.2,0-3.6-0.4-4.4-1.2c-0.8-0.8-1.2-2.1-1.2-4.1
				V16.4z M54,20.5c0,0.5,0,0.9,0,1.3c0,0.4,0.1,0.8,0.2,1.4c0.1,0.6,0.3,1.1,0.6,1.5c0.3,0.4,0.6,0.8,1.2,1.2
				c0.5,0.4,1.1,0.7,1.8,0.8h0c1,0.2,2.1,0.3,3.3,0.3c0.7,0,1.5-0.1,2.6-0.3c1.1-0.2,2-0.4,2.6-0.7l0.4,0.7h0.9v-16
				c-2.3-0.6-4.5-0.8-6.5-0.8c-1.3,0-2.5,0.2-3.4,0.5c-0.9,0.3-1.6,0.6-2.1,1s-0.8,0.9-1.1,1.6c-0.3,0.7-0.4,1.2-0.5,1.7
				c0,0.4-0.1,1-0.1,1.7V20.5z M38.8,26.7V15.9H49v-1.3H38.8V5h11.8V3.7H37.4v23H38.8z"/>
		</defs>
		<clipPath id="XMLID_75_">
			<use xlink:href="#XMLID_52_"  style="overflow:visible;"/>
		</clipPath>
		<g id="XMLID_59_" class="st1">
			<defs>
				<rect id="XMLID_60_" x="-19.3" y="-13.7" width="1366" height="730"/>
			</defs>
			<clipPath id="XMLID_76_">
				<use xlink:href="#XMLID_60_"  style="overflow:visible;"/>
			</clipPath>
			<rect id="XMLID_61_" x="32.4" y="-1.3" class="st2" width="89.2" height="33.3"/>
		</g>
	</g>
	<path id="XMLID_3_" class="st3" d="M194,24c0.1-0.5,0.1-0.9,0-1.2c-0.1-0.3-0.2-0.6-0.3-0.8s-0.4-0.3-0.6-0.4
		c-0.2-0.1-0.5-0.1-0.9-0.1c-0.3,0-0.6,0-0.9,0.1c-0.2,0.1-0.4,0.2-0.6,0.3c-0.2,0.2-0.3,0.4-0.4,0.7c-0.1,0.3-0.1,0.7-0.1,1.2
		c0,0.7,0.1,1.2,0.3,1.5c0.2,0.3,0.6,0.5,1.2,0.7c0.2,0,0.5,0.1,0.8,0.1c0.4,0,0.8,0,1.3-0.1v-0.7c-0.3,0.1-0.7,0.1-1.3,0.1
		c-0.2,0-0.4,0-0.6-0.1c-0.3-0.1-0.5-0.2-0.6-0.4c-0.1-0.2-0.2-0.5-0.2-0.9H194z M191,23.4c0-0.4,0.1-0.8,0.3-0.9
		c0.2-0.2,0.5-0.3,0.9-0.3c0.4,0,0.7,0.1,0.8,0.3c0.2,0.2,0.2,0.5,0.2,0.9H191z M188.3,26h0.8v-2.8c0-0.7-0.1-1.1-0.4-1.4
		c-0.3-0.2-0.8-0.4-1.5-0.4c-0.5,0-0.9,0.1-1.2,0.3l-0.1-0.2h-0.7V26h0.8v-3.6c0.3-0.1,0.7-0.2,1.1-0.2c0.4,0,0.7,0.1,0.9,0.2
		c0.1,0.2,0.2,0.4,0.2,0.8V26z M184.1,20.3L184.1,20.3c0-0.3,0-0.4-0.1-0.4c-0.1-0.1-0.2-0.1-0.4-0.1c-0.2,0-0.3,0-0.4,0.1
		s-0.1,0.2-0.1,0.4v0.1c0,0.2,0,0.3,0.1,0.4c0.1,0.1,0.2,0.1,0.4,0.1c0.2,0,0.3,0,0.4-0.1C184.1,20.7,184.1,20.5,184.1,20.3z
		 M183.2,26h0.8v-4.4h-0.8V26z M181.1,26c0,0.3-0.1,0.5-0.2,0.7c-0.1,0.2-0.3,0.3-0.6,0.4c-0.4,0.1-1.1,0.1-2.1,0.1v0.7
		c1,0,1.8-0.1,2.3-0.2c0.2-0.1,0.4-0.1,0.6-0.2c0.2-0.1,0.3-0.2,0.4-0.3c0.1-0.1,0.2-0.2,0.2-0.3c0.1-0.1,0.1-0.2,0.1-0.4
		c0-0.2,0-0.3,0-0.4c0-0.1,0-0.2,0-0.4v-4h-0.7l-0.1,0.2c-0.2-0.1-0.4-0.1-0.7-0.2c-0.3,0-0.5-0.1-0.6-0.1c-0.7,0-1.1,0.1-1.5,0.4
		c-0.3,0.3-0.5,0.7-0.5,1.4v1c0,0.7,0.2,1.1,0.5,1.4c0.3,0.3,0.8,0.4,1.5,0.4C180.4,26.1,180.8,26,181.1,26z M180,22.2
		c0.4,0,0.8,0.1,1.1,0.2v2.9c-0.3,0.1-0.6,0.1-1.1,0.1c-0.4,0-0.7-0.1-0.9-0.2c-0.2-0.1-0.3-0.4-0.3-0.9v-1c0-0.4,0.1-0.7,0.2-0.8
		C179.2,22.3,179.5,22.2,180,22.2z M176.1,26h0.8v-2.8c0-0.7-0.1-1.1-0.4-1.4c-0.3-0.2-0.8-0.4-1.5-0.4c-0.5,0-0.9,0.1-1.2,0.3
		l-0.1-0.2h-0.7V26h0.8v-3.6c0.3-0.1,0.7-0.2,1.1-0.2c0.4,0,0.7,0.1,0.9,0.2c0.1,0.2,0.2,0.4,0.2,0.8V26z M172.1,26v-0.7H169v-1.9
		h2.7v-0.7H169v-2h3v-0.7h-3.8V26H172.1z M163.9,26c0,0.3-0.1,0.5-0.2,0.7c-0.1,0.2-0.3,0.3-0.6,0.4c-0.4,0.1-1.1,0.1-2.1,0.1v0.7
		c1,0,1.8-0.1,2.3-0.2c0.2-0.1,0.4-0.1,0.6-0.2c0.2-0.1,0.3-0.2,0.4-0.3c0.1-0.1,0.2-0.2,0.2-0.3c0.1-0.1,0.1-0.2,0.1-0.4
		c0-0.2,0-0.3,0-0.4c0-0.1,0-0.2,0-0.4v-4h-0.7l-0.1,0.2c-0.2-0.1-0.4-0.1-0.7-0.2c-0.3,0-0.5-0.1-0.6-0.1c-0.7,0-1.2,0.1-1.5,0.4
		c-0.3,0.3-0.5,0.7-0.5,1.4v1c0,0.7,0.2,1.1,0.5,1.4c0.3,0.3,0.8,0.4,1.5,0.4C163.1,26.1,163.5,26,163.9,26z M162.7,22.2
		c0.4,0,0.8,0.1,1.1,0.2v2.9c-0.3,0.1-0.6,0.1-1.1,0.1c-0.4,0-0.7-0.1-0.9-0.2c-0.2-0.1-0.3-0.4-0.3-0.9v-1c0-0.4,0.1-0.7,0.2-0.8
		C162,22.3,162.3,22.2,162.7,22.2z M158.8,26h0.8v-2.8c0-0.7-0.1-1.1-0.4-1.4c-0.3-0.2-0.8-0.4-1.5-0.4c-0.5,0-0.9,0.1-1.2,0.3
		l-0.1-0.2h-0.7V26h0.8v-3.6c0.3-0.1,0.7-0.2,1.1-0.2c0.4,0,0.7,0.1,0.9,0.2c0.1,0.2,0.2,0.4,0.2,0.8V26z M154.7,20.3L154.7,20.3
		c0-0.3,0-0.4-0.1-0.4c-0.1-0.1-0.2-0.1-0.4-0.1c-0.2,0-0.3,0-0.4,0.1c-0.1,0.1-0.1,0.2-0.1,0.4v0.1c0,0.2,0,0.3,0.1,0.4
		c0.1,0.1,0.2,0.1,0.4,0.1c0.2,0,0.3,0,0.4-0.1C154.6,20.7,154.7,20.5,154.7,20.3z M153.8,26h0.8v-4.4h-0.8V26z M151.1,21.6h-0.7V26
		h0.8v-3.4c0.4-0.2,1-0.3,1.7-0.3v-0.8c-0.4,0-1,0.2-1.8,0.5L151.1,21.6z M148.4,24.3c0,0.4-0.1,0.7-0.3,0.8
		c-0.2,0.2-0.5,0.2-0.9,0.2c-0.4,0-0.7-0.1-0.9-0.2c-0.2-0.1-0.3-0.4-0.3-0.9v-1c0-0.4,0.1-0.7,0.3-0.8c0.2-0.2,0.5-0.2,0.9-0.2
		c0.4,0,0.7,0.1,0.9,0.2c0.2,0.1,0.3,0.4,0.3,0.9V24.3z M149.3,23.3c0-0.2,0-0.3,0-0.4c0-0.1-0.1-0.3-0.1-0.5
		c-0.1-0.2-0.2-0.3-0.3-0.4c-0.1-0.1-0.3-0.2-0.6-0.3c-0.3-0.1-0.6-0.1-1-0.1c-0.4,0-0.7,0-1,0.1c-0.3,0.1-0.5,0.2-0.6,0.3
		c-0.1,0.1-0.2,0.3-0.3,0.5c-0.1,0.2-0.1,0.3-0.1,0.5c0,0.1,0,0.3,0,0.4v1c0,0.2,0,0.3,0,0.4c0,0.1,0.1,0.3,0.1,0.5
		c0.1,0.2,0.2,0.3,0.3,0.5c0.1,0.1,0.3,0.2,0.6,0.3c0.3,0.1,0.6,0.1,1,0.1c0.4,0,0.7,0,1-0.1c0.3-0.1,0.5-0.2,0.6-0.3
		c0.1-0.1,0.2-0.3,0.3-0.5c0.1-0.2,0.1-0.3,0.1-0.5c0-0.1,0-0.3,0-0.4V23.3z M144.4,25.4c-0.2,0-0.4,0-0.5,0c-0.3,0-0.5-0.1-0.6-0.2
		c-0.1-0.1-0.2-0.3-0.2-0.5v-2.5h1.3v-0.7h-1.3v-1.2h-0.7l-0.2,1.2h-0.7v0.7h0.7v2.5c0,0.1,0,0.2,0,0.3c0,0.1,0.1,0.2,0.1,0.3
		c0.1,0.1,0.1,0.2,0.2,0.3c0.1,0.1,0.2,0.2,0.4,0.2c0.2,0.1,0.4,0.1,0.6,0.1c0.3,0,0.5,0,0.7-0.1V25.4z M140.8,20.3L140.8,20.3
		c0-0.3,0-0.4-0.1-0.4c-0.1-0.1-0.2-0.1-0.4-0.1c-0.2,0-0.3,0-0.4,0.1c-0.1,0.1-0.1,0.2-0.1,0.4v0.1c0,0.2,0,0.3,0.1,0.4
		c0.1,0.1,0.2,0.1,0.4,0.1c0.2,0,0.3,0,0.4-0.1C140.8,20.7,140.8,20.5,140.8,20.3z M139.9,26h0.8v-4.4h-0.8V26z M137.8,26h0.8v-2.8
		c0-0.7-0.1-1.1-0.4-1.4c-0.3-0.2-0.8-0.4-1.5-0.4c-0.5,0-0.9,0.1-1.2,0.3l-0.1-0.2h-0.7V26h0.8v-3.6c0.3-0.1,0.7-0.2,1.1-0.2
		c0.4,0,0.7,0.1,0.9,0.2c0.1,0.2,0.2,0.4,0.2,0.8V26z M132.9,24.3c0,0.4-0.1,0.7-0.3,0.8c-0.2,0.2-0.5,0.2-0.9,0.2
		c-0.4,0-0.7-0.1-0.9-0.2c-0.2-0.1-0.3-0.4-0.3-0.9v-1c0-0.4,0.1-0.7,0.3-0.8c0.2-0.2,0.5-0.2,0.9-0.2c0.4,0,0.7,0.1,0.9,0.2
		c0.2,0.1,0.3,0.4,0.3,0.9V24.3z M133.7,23.3c0-0.2,0-0.3,0-0.4c0-0.1-0.1-0.3-0.1-0.5c-0.1-0.2-0.2-0.3-0.3-0.4
		c-0.1-0.1-0.3-0.2-0.6-0.3c-0.3-0.1-0.6-0.1-1-0.1c-0.4,0-0.7,0-1,0.1c-0.3,0.1-0.5,0.2-0.6,0.3c-0.1,0.1-0.2,0.3-0.3,0.5
		c-0.1,0.2-0.1,0.3-0.1,0.5c0,0.1,0,0.3,0,0.4v1c0,0.2,0,0.3,0,0.4c0,0.1,0.1,0.3,0.1,0.5c0.1,0.2,0.2,0.3,0.3,0.5
		c0.1,0.1,0.3,0.2,0.6,0.3c0.3,0.1,0.6,0.1,1,0.1c0.4,0,0.7,0,1-0.1c0.3-0.1,0.5-0.2,0.6-0.3c0.1-0.1,0.2-0.3,0.3-0.5
		c0.1-0.2,0.1-0.3,0.1-0.5c0-0.1,0-0.3,0-0.4V23.3z M127.3,20.9L127.3,20.9l0.4,5.1h0.9l-0.5-6.1h-1.1l-1.9,4.4l-1.8-4.4h-1.2
		l-0.5,6.1h0.9l0.4-5.1h0l1.8,4.3h0.7L127.3,20.9z M185.4,17.4h0.8v-2.8c0-0.7-0.1-1.1-0.4-1.4c-0.3-0.2-0.8-0.4-1.5-0.4
		c-0.5,0-0.9,0.1-1.2,0.3l-0.1-0.2h-0.7v4.4h0.8v-3.6c0.3-0.1,0.7-0.2,1.1-0.2c0.4,0,0.7,0.1,0.9,0.2c0.1,0.2,0.2,0.4,0.2,0.8V17.4z
		 M180.4,15.7c0,0.4-0.1,0.7-0.3,0.8c-0.2,0.2-0.5,0.2-0.9,0.2c-0.4,0-0.7-0.1-0.9-0.2c-0.2-0.1-0.3-0.4-0.3-0.9v-1
		c0-0.4,0.1-0.7,0.3-0.8c0.2-0.2,0.5-0.2,0.9-0.2c0.4,0,0.7,0.1,0.9,0.2c0.2,0.1,0.3,0.4,0.3,0.9V15.7z M181.3,14.7
		c0-0.2,0-0.3,0-0.4c0-0.1-0.1-0.3-0.1-0.5c-0.1-0.2-0.2-0.3-0.3-0.4c-0.1-0.1-0.3-0.2-0.6-0.3c-0.3-0.1-0.6-0.1-1-0.1
		c-0.4,0-0.7,0-1,0.1c-0.3,0.1-0.5,0.2-0.6,0.3c-0.1,0.1-0.2,0.3-0.3,0.5c-0.1,0.2-0.1,0.3-0.1,0.5c0,0.1,0,0.3,0,0.4v1
		c0,0.2,0,0.3,0,0.4c0,0.1,0.1,0.3,0.1,0.5c0.1,0.2,0.2,0.3,0.3,0.5c0.1,0.1,0.3,0.2,0.6,0.3c0.3,0.1,0.6,0.1,1,0.1
		c0.4,0,0.7,0,1-0.1c0.3-0.1,0.5-0.2,0.6-0.3c0.1-0.1,0.2-0.3,0.3-0.5c0.1-0.2,0.1-0.3,0.1-0.5c0-0.1,0-0.3,0-0.4V14.7z M176.1,11.7
		L176.1,11.7c0-0.3,0-0.4-0.1-0.4s-0.2-0.1-0.4-0.1c-0.2,0-0.3,0-0.4,0.1c-0.1,0.1-0.1,0.2-0.1,0.4v0.1c0,0.2,0,0.3,0.1,0.4
		c0.1,0.1,0.2,0.1,0.4,0.1c0.2,0,0.3,0,0.4-0.1C176.1,12,176.1,11.9,176.1,11.7z M175.2,17.4h0.8V13h-0.8V17.4z M174.3,16.8
		c-0.2,0-0.4,0-0.5,0c-0.3,0-0.5-0.1-0.6-0.2c-0.1-0.1-0.2-0.3-0.2-0.5v-2.5h1.3V13H173v-1.2h-0.7l-0.2,1.2h-0.7v0.7h0.7v2.5
		c0,0.1,0,0.2,0,0.3c0,0.1,0.1,0.2,0.1,0.3c0.1,0.1,0.1,0.2,0.2,0.3c0.1,0.1,0.2,0.2,0.4,0.2c0.2,0.1,0.4,0.1,0.6,0.1
		c0.3,0,0.5,0,0.7-0.1V16.8z M167.6,14.7c0-0.4,0.1-0.7,0.2-0.8c0.2-0.2,0.5-0.2,0.9-0.2c0.4,0,0.7,0,1,0.1v2.9
		c-0.3,0.1-0.7,0.2-1,0.2c-0.4,0-0.7-0.1-0.9-0.2c-0.2-0.2-0.2-0.4-0.2-0.8V14.7z M166.8,15.7c0,0.2,0,0.3,0,0.4
		c0,0.1,0.1,0.3,0.1,0.5c0.1,0.2,0.2,0.3,0.3,0.4c0.1,0.1,0.3,0.2,0.6,0.3c0.3,0.1,0.6,0.1,1,0.1c0.1,0,0.3,0,0.5-0.1
		c0.2,0,0.4-0.1,0.6-0.2l0.1,0.2h0.7v-4.3c-0.6-0.2-1.2-0.2-1.9-0.2c-0.4,0-0.7,0-1,0.1c-0.3,0.1-0.5,0.2-0.6,0.3s-0.2,0.3-0.3,0.4
		s-0.1,0.3-0.1,0.5c0,0.1,0,0.3,0,0.4V15.7z M165.9,13.7V13c-0.5-0.1-1-0.1-1.4-0.1c-0.3,0-0.5,0-0.7,0.1c-0.2,0-0.4,0.1-0.5,0.2
		c-0.1,0.1-0.3,0.2-0.4,0.3c-0.1,0.1-0.2,0.2-0.2,0.3c0,0.1-0.1,0.2-0.1,0.3c0,0.1,0,0.2,0,0.3c0,0.1,0,0.2,0,0.3v1.1
		c0,0.1,0,0.2,0,0.3c0,0.1,0,0.2,0,0.3c0,0.1,0.1,0.2,0.1,0.3c0,0.1,0.1,0.2,0.2,0.3c0.1,0.1,0.2,0.2,0.4,0.3
		c0.1,0.1,0.3,0.1,0.5,0.2c0.2,0,0.5,0.1,0.7,0.1c0.5,0,0.9,0,1.4-0.1v-0.7c-0.4,0.1-0.8,0.1-1.3,0.1c-0.2,0-0.3,0-0.4,0
		s-0.2,0-0.3-0.1c-0.1,0-0.2-0.1-0.3-0.2c-0.1-0.1-0.1-0.2-0.2-0.3c0-0.1-0.1-0.3-0.1-0.5v-1.1c0-0.4,0.1-0.7,0.3-0.8
		c0.2-0.1,0.5-0.2,1-0.2C165.1,13.6,165.5,13.6,165.9,13.7z M161.5,11.7L161.5,11.7c0-0.3,0-0.4-0.1-0.4s-0.2-0.1-0.4-0.1
		c-0.2,0-0.3,0-0.4,0.1c-0.1,0.1-0.1,0.2-0.1,0.4v0.1c0,0.2,0,0.3,0.1,0.4c0.1,0.1,0.2,0.1,0.4,0.1c0.2,0,0.3,0,0.4-0.1
		C161.4,12,161.5,11.9,161.5,11.7z M160.5,17.4h0.8V13h-0.8V17.4z M158.4,17.4h0.8v-6.1h-0.8V17.4z M155.3,12.9
		c-0.1,0-0.3,0-0.6,0.1c-0.3,0-0.5,0.1-0.7,0.2L154,13h-0.7v6.1h0.8v-1.8c0.4,0.1,0.7,0.1,1.1,0.1c0.7,0,1.2-0.1,1.5-0.4
		c0.3-0.3,0.5-0.7,0.5-1.4v-1c0-0.7-0.2-1.1-0.5-1.4C156.4,13,155.9,12.9,155.3,12.9z M155.3,13.6c0.4,0,0.7,0.1,0.9,0.2
		c0.2,0.2,0.2,0.4,0.2,0.8v1c0,0.4-0.1,0.7-0.3,0.9c-0.2,0.1-0.5,0.2-0.9,0.2c-0.5,0-0.9,0-1.1-0.1v-2.9
		C154.5,13.6,154.9,13.6,155.3,13.6z M150.2,12.9c-0.1,0-0.3,0-0.6,0.1c-0.3,0-0.5,0.1-0.7,0.2l-0.1-0.2h-0.7v6.1h0.8v-1.8
		c0.4,0.1,0.7,0.1,1.1,0.1c0.7,0,1.2-0.1,1.5-0.4c0.3-0.3,0.5-0.7,0.5-1.4v-1c0-0.7-0.2-1.1-0.5-1.4C151.3,13,150.8,12.9,150.2,12.9
		z M150.2,13.6c0.4,0,0.7,0.1,0.9,0.2c0.2,0.2,0.2,0.4,0.2,0.8v1c0,0.4-0.1,0.7-0.3,0.9c-0.2,0.1-0.5,0.2-0.9,0.2
		c-0.5,0-0.9,0-1.1-0.1v-2.9C149.4,13.6,149.8,13.6,150.2,13.6z M144.6,12L144.6,12l1,2.7h-1.9L144.6,12z M147.5,17.4l-2.2-6.1h-1.1
		l-2.2,6.1h0.9l0.7-1.9h2.4l0.7,1.9H147.5z M139.3,15.4c0.1-0.5,0.1-0.9,0-1.2c-0.1-0.3-0.2-0.6-0.3-0.8c-0.2-0.2-0.4-0.3-0.6-0.4
		c-0.2-0.1-0.5-0.1-0.9-0.1c-0.3,0-0.6,0-0.9,0.1c-0.2,0.1-0.4,0.2-0.6,0.3c-0.2,0.2-0.3,0.4-0.4,0.7c-0.1,0.3-0.1,0.7-0.1,1.2
		c0,0.7,0.1,1.2,0.3,1.5c0.2,0.3,0.6,0.5,1.2,0.7c0.2,0,0.5,0.1,0.8,0.1c0.4,0,0.8,0,1.3-0.1v-0.7c-0.3,0.1-0.7,0.1-1.3,0.1
		c-0.2,0-0.4,0-0.6-0.1c-0.3-0.1-0.5-0.2-0.6-0.4c-0.1-0.2-0.2-0.5-0.2-0.9H139.3z M136.3,14.7c0-0.4,0.1-0.8,0.3-0.9
		c0.2-0.2,0.5-0.3,0.9-0.3s0.7,0.1,0.8,0.3c0.2,0.2,0.2,0.5,0.2,0.9H136.3z M131.3,17.2c0.5,0.2,1,0.2,1.4,0.2
		c0.6,0,1.1-0.1,1.4-0.3c0.3-0.2,0.5-0.5,0.5-0.9c0-0.3-0.1-0.5-0.3-0.7c-0.2-0.2-0.4-0.4-0.7-0.5l-0.9-0.4
		c-0.2-0.1-0.3-0.1-0.3-0.2c-0.1-0.1-0.1-0.2-0.1-0.3c0-0.3,0.3-0.5,1-0.5c0.5,0,0.8,0.1,1.1,0.2V13c-0.3-0.1-0.7-0.2-1.1-0.2
		c-0.6,0-1.1,0.1-1.4,0.3c-0.3,0.2-0.4,0.5-0.4,0.8c0,0.3,0.1,0.6,0.2,0.7c0.1,0.2,0.4,0.3,0.7,0.5l0.9,0.4c0.1,0.1,0.2,0.1,0.3,0.1
		c0.1,0,0.1,0.1,0.2,0.2c0.1,0.1,0.1,0.2,0.1,0.3c0,0.2-0.1,0.3-0.2,0.4c-0.2,0.1-0.4,0.1-0.8,0.1c-0.5,0-1-0.1-1.4-0.3V17.2z
		 M127.3,13h-0.8v2.8c0,0.7,0.1,1.1,0.4,1.4c0.3,0.2,0.8,0.4,1.5,0.4c0.5,0,0.9-0.1,1.2-0.3l0.1,0.2h0.7V13h-0.8v3.6
		c-0.3,0.1-0.7,0.2-1.1,0.2c-0.4,0-0.7-0.1-0.9-0.2c-0.1-0.2-0.2-0.4-0.2-0.8V13z M125.2,14.7V14h-2.5v-2h3v-0.7h-3.8v6.1h0.9v-2.7
		H125.2z"/>
</g>
</svg>
