<?xml version="1.0" encoding="utf-8"?>
<!-- Generator: Adobe Illustrator 19.0.0, SVG Export Plug-In . SVG Version: 6.00 Build 0)  -->
<svg version="1.1" id="Layer_1" xmlns="http://www.w3.org/2000/svg" xmlns:xlink="http://www.w3.org/1999/xlink" x="0px" y="0px"
	 viewBox="0 0 15 15" style="enable-background:new 0 0 15 15;" xml:space="preserve">
<style type="text/css">
	.st0{fill:#FFFFFF;}
</style>
<g id="XMLID_9_">
	<path id="XMLID_2_" class="st0" d="M4.2,7.5l2.4,2.6l4.5-4.3 M12.4,12.4c-2.7,2.7-7.2,2.7-9.9,0c-2.7-2.7-2.7-7.2,0-9.9
		c2.7-2.7,7.2-2.7,9.9,0C15.2,5.3,15.2,9.7,12.4,12.4z"/>
	<path id="XMLID_5_" d="M7.5,15c-2,0-3.9-0.8-5.3-2.2C0.8,11.4,0,9.5,0,7.5c0-2,0.8-3.9,2.2-5.3S5.5,0,7.5,0s3.9,0.8,5.3,2.2
		c2.9,2.9,2.9,7.7,0,10.6l0,0l0,0C11.4,14.2,9.5,15,7.5,15z M7.5,1C5.8,1,4.1,1.7,2.9,2.9C1.7,4.1,1,5.8,1,7.5s0.7,3.4,1.9,4.6
		C4.1,13.3,5.8,14,7.5,14c1.7,0,3.4-0.7,4.6-1.9l0,0c2.5-2.5,2.5-6.7,0-9.2C10.9,1.7,9.2,1,7.5,1z M6.6,10.8l-2.8-3l0.7-0.7l2.1,2.3
		l4.1-3.9l0.7,0.7L6.6,10.8z"/>
</g>
</svg>
