<?xml version="1.0" encoding="utf-8"?>
<!-- Generator: Adobe Illustrator 19.0.0, SVG Export Plug-In . SVG Version: 6.00 Build 0)  -->
<svg version="1.1" id="Layer_1" xmlns="http://www.w3.org/2000/svg" xmlns:xlink="http://www.w3.org/1999/xlink" x="0px" y="0px"
	 viewBox="0 0 23 23" style="enable-background:new 0 0 23 23;" xml:space="preserve">
<style type="text/css">
	.st0{fill:none;stroke:#7B8994;stroke-linecap:round;stroke-linejoin:round;stroke-miterlimit:10;}
</style>
<path class="st0" d="M0.5,11.1V6.6H21 M18.7,15.7c0-0.4-0.3-0.8-0.8-0.8c-0.4,0-0.8,0.3-0.8,0.8c0,0.4,0.3,0.8,0.8,0.8
	C18.4,16.4,18.7,16.1,18.7,15.7z M15.7,15.7c0-0.4-0.3-0.8-0.8-0.8c-0.4,0-0.8,0.3-0.8,0.8c0,0.4,0.3,0.8,0.8,0.8
	C15.3,16.4,15.7,16.1,15.7,15.7z M21,12.6H0.5v4.6c0,0.8,0.8,1.5,1.5,1.5h19c0.8,0,1.5-0.8,1.5-1.5V2c0-0.8-0.8-1.5-1.5-1.5H2
	C1.3,0.5,0.5,1.3,0.5,2v3 M11.1,15.7H4.3H11.1z M18.7,9.6c0-0.4-0.3-0.8-0.8-0.8c-0.4,0-0.8,0.3-0.8,0.8c0,0.4,0.3,0.8,0.8,0.8
	C18.4,10.4,18.7,10,18.7,9.6z M15.7,9.6c0-0.4-0.3-0.8-0.8-0.8c-0.4,0-0.8,0.3-0.8,0.8c0,0.4,0.3,0.8,0.8,0.8
	C15.3,10.4,15.7,10,15.7,9.6z M11.1,9.6H4.3H11.1z M18.7,3.5c0-0.4-0.3-0.8-0.8-0.8c-0.4,0-0.8,0.3-0.8,0.8c0,0.4,0.3,0.8,0.8,0.8
	C18.4,4.3,18.7,4,18.7,3.5z M15.7,3.5c0-0.4-0.3-0.8-0.8-0.8c-0.4,0-0.8,0.3-0.8,0.8c0,0.4,0.3,0.8,0.8,0.8
	C15.3,4.3,15.7,4,15.7,3.5z M11.1,3.5H4.3H11.1z M5.1,21.7h5.7H5.1z M12.3,21.7h5.7H12.3z M11.5,20.2V21V20.2z M12.3,21.7
	c0-0.4-0.3-0.8-0.8-0.8c-0.4,0-0.8,0.3-0.8,0.8s0.3,0.8,0.8,0.8C11.9,22.5,12.3,22.2,12.3,21.7z"/>
</svg>
